<svg xmlns="http://www.w3.org/2000/svg" xmlns:xlink="http://www.w3.org/1999/xlink" width="200" height="200" viewBox="0 0 1024 1024"><path fill="#010052" d="M510.932 171.537C516.188 171.239 585.879 198.811 595.806 202.58L712.572 246.776C728.857 252.951 853.893 299.315 857.911 303.055C862.35 307.186 862.32 313.089 862.444 318.676C862.674 329.129 863.667 376.379 861.688 383.152C860.809 386.162 858.474 388.313 856.364 390.502C857.409 441.335 856.493 495.028 856.476 546.073L856.556 609.445C856.615 622.881 858.409 692.723 854.693 701.675C853.291 705.051 849.367 707.186 846.255 708.762C832.314 715.82 817.363 721.405 803.006 727.608L724.307 761.785L513.186 853.509C512.961 853.527 512.736 853.565 512.51 853.561C508.148 853.497 444.894 824.859 434.624 820.383L293.075 758.777L216.424 725.512C203.372 719.862 190.27 714.33 177.271 708.56C170.877 705.721 167.978 701.495 167.7 694.556C167.28 684.066 167.47 673.527 167.481 663.024L167.527 601.768L167.488 390.364C165.372 388.353 162.873 386.278 161.766 383.503C159.77 378.501 160.133 322.676 160.778 314.02C160.936 311.888 161.174 309.767 162.098 307.811C163.321 305.219 164.881 303.408 167.456 302.106C180.229 295.646 194.613 291.041 207.982 285.862L286.218 255.92L510.932 171.537Z"/><path fill="#B8D4F1" d="M829.304 395.38C830.251 410.003 829.617 433.872 829.43 448.87C830.248 527.745 829.355 607.577 829.508 686.554L597.971 787.455L546.625 809.756C538.106 813.401 528.273 817.233 519.982 821.075L519.973 797.492L520 525.599L729.767 436.704L792.848 410.316C804.574 405.428 817.545 399.687 829.304 395.38Z"/><path fill="#A4A4C2" d="M829.43 448.87C830.248 527.745 829.355 607.577 829.508 686.554L597.971 787.455L546.625 809.756C538.106 813.401 528.273 817.233 519.982 821.075L519.973 797.492C526.28 795.642 544.707 787.254 551.561 784.217C569.209 776.319 586.921 768.567 604.697 760.961C679.261 727.961 754.059 695.491 829.084 663.553C828.781 647.499 829.037 630.593 829.036 614.447L829.026 519.888L828.969 473.958C828.961 467.639 828.621 454.579 829.43 448.87Z"/><path fill="#010052" d="M790.428 454.04C795.487 453.869 797.13 455.967 799.474 460.032L799.504 657.471C798.285 659.226 796.968 661.167 795.005 662.069C784.782 666.77 774.308 671.319 764.016 675.837L700.323 703.626L612.091 742.082C596.227 748.997 579.205 756.838 563.275 763.21C560.687 762.698 556.291 761.46 555.598 758.71C552.766 747.479 554.155 732.186 554.198 720.844L554.146 671.867C554.101 636.702 553.993 601.434 554.078 566.262C554.084 564.031 554.359 558.726 555.183 556.713C555.816 555.169 558.062 553.143 559.693 552.399C572.464 546.579 585.517 541.003 598.408 535.474C625.778 523.706 653.227 512.123 680.753 500.726L750.499 470.57C763.225 465.087 777.508 458.625 790.428 454.04Z"/><path fill="#5048C4" d="M782.019 474.1C783.462 477.284 782.118 631.384 782.999 650.075L570.203 743.511L569.857 743.223C568.013 738.592 568.971 582.087 568.969 564.991C576.867 561.831 586.071 557.504 593.964 554.049L642.093 533.143C688.582 513.102 735.225 493.42 782.019 474.1Z"/><path fill="#6E70C8" d="M757.722 514.391L758.607 514.609C759.596 517.451 759.351 545.529 759.443 549.993C760.007 577.431 758.664 606.576 759.944 633.822C744.871 639.901 728.553 647.474 713.497 653.967L594.163 705.017C593.436 705.321 593.869 705.237 592.841 705.052C592.288 703.364 592.299 688.48 592.257 685.757C591.935 651.843 591.975 617.926 592.376 584.012C634.63 566.768 676.319 547.404 718.877 530.744C731.709 525.72 745.262 520.184 757.722 514.391Z"/><path fill="#FEFEFE" d="M511.698 199.453C514.327 199.884 531.758 206.716 535.386 208.087L588.043 227.84L736.984 284.712C764.677 295.302 794.328 305.397 821.199 317.156C803.338 326.371 779.756 335.372 760.914 343.326L654.391 388.188L559.89 427.557C546.936 432.948 524.838 443.119 512.617 446.965C493.849 439.934 471.277 429.888 452.444 422.091L332.038 372.271L249.05 337.828C234.981 331.986 214.625 324.24 201.514 317.448L511.698 199.453Z"/><path fill="#010052" d="M508.975 219.469C509.973 219.335 510.983 219.32 511.984 219.424C515.726 219.802 530.449 225.508 534.946 227.177C554.057 234.26 573.102 241.52 592.078 248.957L703.701 291.471C721.471 298.192 739.36 304.667 757.095 311.478C758.978 312.201 763.28 314.033 764.241 315.742C764.79 316.719 765.112 318.599 764.629 319.842C759.332 324.339 737.334 332.925 729.621 336.168L685.93 354.488L515.608 425.604C513.328 426.436 512.581 426.638 510.2 425.746C496.801 420.728 483.525 415.031 470.291 409.574L384.892 373.935L305.185 340.711L279.194 330.091C274.215 328.075 263.529 325.072 260.994 320.147C259.442 317.131 261.461 313.504 264.586 312.264C272.616 309.079 280.804 306.185 288.913 303.146L340.269 283.881C396.628 262.735 452.864 241.264 508.975 219.469Z"/><path fill="#5048C4" d="M345.169 341.883C352.038 339.083 359.204 336.37 366.172 333.788C412.289 316.692 458.018 297.949 504.191 281.06L504.047 300.168L503.985 407.802C469.064 392.867 433.975 378.326 398.725 364.181C392.389 361.656 386.307 358.815 380.073 356.088C378.13 355.238 373.299 352.918 371.477 352.399C362.49 349.199 353.951 345.571 345.169 341.883Z"/><path fill="#A4A4C2" d="M345.169 341.883C352.038 339.083 359.204 336.37 366.172 333.788C412.289 316.692 458.018 297.949 504.191 281.06L504.047 300.168C472.607 313.401 442.358 324.78 410.535 336.957C401.54 340.407 392.567 343.911 383.615 347.471C380.115 348.866 374.793 351.279 371.477 352.399C362.49 349.199 353.951 345.571 345.169 341.883Z"/><path fill="#B8D4F1" d="M520.212 280.289C552.184 292.522 584.224 305.719 616.161 318.245L656.608 333.97C662.898 336.404 670.773 339.194 676.868 341.846C671.833 344.23 654.49 352.377 649.744 353.376L578.973 382.875C559.278 391.094 540.017 399.406 520.095 407.082L520.006 302.529C520.008 295.413 519.843 287.32 520.212 280.289Z"/><path fill="#A4A4C2" d="M520.212 280.289C552.184 292.522 584.224 305.719 616.161 318.245L656.608 333.97C662.898 336.404 670.773 339.194 676.868 341.846C671.833 344.23 654.49 352.377 649.744 353.376C647.255 351.75 639.169 349.089 636.047 347.924C628.856 345.217 621.682 342.467 614.523 339.676L520.006 302.529C520.008 295.413 519.843 287.32 520.212 280.289Z"/><path fill="#A4A4C2" d="M504.069 237.544L504.049 248.92L504.044 264.533C486.107 272.752 467.459 279.449 449.046 286.51L380.497 312.985C362.905 319.717 344.012 325.897 327.393 334.525C318.585 330.348 309.641 326.465 300.575 322.882C297.066 321.488 293.596 319.995 290.171 318.405C310.877 309.147 335.105 301.448 356.498 293.192C405.338 274.343 455.47 256.899 504.069 237.544Z"/><path fill="#B8D4F1" d="M504.069 237.544L504.049 248.92C487.215 254.688 469.408 261.71 452.595 267.992L367.932 299.729L334.557 312.587C326.908 315.556 318.287 319.115 310.463 321.346C305.716 319.817 303.845 318.336 300.575 322.882C297.066 321.488 293.596 319.995 290.171 318.405C310.877 309.147 335.105 301.448 356.498 293.192C405.338 274.343 455.47 256.899 504.069 237.544Z"/><path fill="#6E70C8" d="M520.406 237.707C530.822 242.492 541.875 246.425 552.618 250.453L598.202 267.533L731.971 318.399C728.293 320.351 724.949 321.726 721.127 323.327C713.07 326.872 704.868 330.074 696.54 332.926C689.458 330.723 680.667 327.108 673.637 324.378L637.495 310.308C598.393 295.107 559.367 279.71 520.42 264.118L520.406 237.707Z"/><path fill="#B8D4F1" d="M239.774 415.373C247.949 418.635 256.066 422.042 264.121 425.591L372.074 470.362C390.09 477.832 412.642 486.433 430.023 494.645C437.529 497.13 446.633 501.366 454.508 504.314L454.498 743.188C443.814 738.257 432.959 733.409 422.137 728.784C361.356 702.808 301.109 674.768 240.037 649.551C239.686 618.151 240.025 585.994 240.013 554.519L239.774 415.373Z"/><path fill="#A4A4C2" d="M239.774 415.373C247.949 418.635 256.066 422.042 264.121 425.591C264.497 454.579 264.568 483.569 264.335 512.557L264.497 632C276.966 637.115 289.683 643.282 302.107 648.78L382.316 684.142L411.675 696.992C417.09 699.347 424.469 702.765 429.989 704.509C431.316 634.513 429.759 564.514 430.023 494.645C437.529 497.13 446.633 501.366 454.508 504.314L454.498 743.188C443.814 738.257 432.959 733.409 422.137 728.784C361.356 702.808 301.109 674.768 240.037 649.551C239.686 618.151 240.025 585.994 240.013 554.519L239.774 415.373Z"/><path fill="#010052" d="M291.714 477.085C298.7 476.622 316.35 485.203 323.47 488.296L364.366 506.266C372.137 509.725 379.927 513.14 387.736 516.511C395.691 519.943 404.787 523.476 411.835 528.368C413.268 536.456 412.55 561.768 412.435 570.96C406.877 575.616 402.646 577.192 396.155 580.204C392.317 582.006 389.789 583.112 385.804 584.505C379.918 582.358 372.576 578.859 366.742 576.255L334.436 561.831C329.283 559.531 282.211 540.3 281.197 535.347C279.188 525.534 280.641 501.361 280.487 489.922C280.392 482.813 285.824 479.303 291.714 477.085Z"/><path fill="#090BAC" d="M295.041 510.542C301.659 512.779 312.599 518.397 319.418 521.464C339.319 530.415 357.458 539.505 378.024 546.888L377.977 565.755C365.402 559.922 352.621 554.498 339.953 548.848C325.482 542.393 310.228 535.103 295.38 529.527C295.107 523.272 295.114 516.819 295.041 510.542Z"/><path fill="#FEFEFE" d="M293.984 491.319C300.148 493.467 308.027 497.141 314.107 499.804L347.511 514.472L373.874 526.14C377.737 527.874 385.22 531.093 388.622 533.282L388.353 534.384C383.706 535.644 373.395 530.19 368.724 528.134C344.003 517.253 318.984 506.745 294.75 494.849C293.728 494.347 293.993 492.255 293.984 491.319Z"/><path fill="#FEFEFE" d="M397.088 544.997C398.703 546.071 398.049 559.559 398.025 562.064L393.26 564.351L392.913 564.331C391.712 562.329 392.381 549.991 392.454 546.886L397.088 544.997Z"/><path fill="#6E70C8" d="M193.593 396.525C203.543 400.61 215.089 405.26 224.777 409.787C224.483 429.718 224.413 449.652 224.568 469.585L224.595 566.668L224.589 615.738C224.58 626.91 223.515 649.194 226.401 658.911C229.839 661.408 236.211 664.688 240.153 666.382C254.278 672.454 268.462 678.331 282.588 684.437L380.226 727.031C394.896 733.442 409.519 739.958 424.095 746.578C434.692 751.404 450.387 759.339 461.485 761.609C463.405 761.053 466.616 760.414 467.788 758.665C471.271 753.468 468.978 538.116 469.619 511.399L504 526.117L504.026 798.305L504.038 820.563C478.639 810.851 450.844 797.672 425.541 786.629L269.385 718.568C245.093 708.053 218.331 695.774 194 686.131L194.012 663.125L193.8 546.647C192.886 543.183 193.228 527.448 193.264 523.234L193.445 490.087L193.388 465.008C192.793 459.525 193.138 454.192 193.529 448.717C193.448 431.319 193.47 413.922 193.593 396.525Z"/><path fill="#5048C4" d="M194.012 663.125C213.599 672.26 234.223 680.181 254.128 688.92C310.712 714.02 367.423 738.831 424.259 763.353L471.206 783.786C481.638 788.252 494.057 793.143 504.026 798.305L504.038 820.563C478.639 810.851 450.844 797.672 425.541 786.629L269.385 718.568C245.093 708.053 218.331 695.774 194 686.131L194.012 663.125Z"/><path fill="#FEFEFE" d="M193.445 490.087C208.011 472.96 214.698 488.576 214.642 503.645C214.799 509.755 213.994 516.551 213.865 522.582C213.695 530.542 216.545 543.589 209.919 549.802C203.68 555.652 198.096 551.172 193.8 546.647C192.886 543.183 193.228 527.448 193.264 523.234L193.445 490.087Z"/><path fill="#FEFEFE" d="M193.529 448.717C196.453 445.99 199.449 443.19 203.697 443.278C211.82 443.447 214.645 453.6 213.995 460.059C213.65 463.681 211.875 467.016 209.064 469.326C207.284 470.76 204.969 471.652 202.831 472.41C198.105 469.941 196.942 469.074 193.388 465.008C192.793 459.525 193.138 454.192 193.529 448.717Z"/><path fill="#5048C4" d="M189.005 328.317C251.925 355.096 315.025 381.452 378.3 407.383L448.856 436.74C467.1 444.432 485.595 452.631 503.995 459.845L503.998 481.46L504.004 509.573C480.23 499.023 454.035 488.703 429.901 478.662L286.62 419.075L230.937 395.897C216.672 389.922 202.648 384.335 188.988 377.055L188.999 351.733L189.005 328.317Z"/><path fill="#6E70C8" d="M189.005 328.317C251.925 355.096 315.025 381.452 378.3 407.383L448.856 436.74C467.1 444.432 485.595 452.631 503.995 459.845L503.998 481.46L242.741 374.308C231.872 369.966 221.039 365.535 210.243 361.017C203.396 358.082 195.824 354.349 188.999 351.733L189.005 328.317Z"/><path fill="#B8D4F1" d="M519.995 460.354C582.822 433.303 647.31 407.853 710.479 381.24L784.441 349.998C800.745 342.968 818.923 334.41 835.405 328.5C835.508 336.731 835.536 344.964 835.49 353.195L835.509 375.602C805.873 387.238 776.556 400.68 747.129 413.05L604.027 472.984C576.262 484.93 547.997 498.204 520.008 509.364L520.007 484.004L519.995 460.354Z"/><path fill="#A4A4C2" d="M520.007 484.004C526.146 480.734 544.866 473.577 551.895 470.67L619.569 442.656L835.49 353.195L835.509 375.602C805.873 387.238 776.556 400.68 747.129 413.05L604.027 472.984C576.262 484.93 547.997 498.204 520.008 509.364L520.007 484.004Z"/></svg>