<svg xmlns="http://www.w3.org/2000/svg" xmlns:xlink="http://www.w3.org/1999/xlink" viewBox="160.62 121.43 703.12 781.23"><path fill="#010051" d="M505.071 121.687C544.286 118.75 582.27 141.107 608.093 169.057C631.217 194.084 646.963 221.72 660.675 252.614C668.355 251.946 676.493 252.388 684.309 252.495C753.863 253.479 839.471 281.792 858.75 357.196C873.288 414.056 851.006 465.674 822.738 513.583C827.092 521.018 832.05 528.18 836.354 535.613C862.237 580.256 873.855 635.487 852.971 684.527C848.608 694.774 845.738 696.566 846.27 708.49C847.07 731.455 829.123 752.848 806.934 757.595C795.429 760.057 780.182 758.912 770.105 752.4C748.196 765.748 687.832 777.136 662.001 772.317C650.944 796.204 637.191 818.748 621.01 839.51C596.334 871.019 562.744 897.116 521.904 902.028C509.471 904.091 490.181 900.799 478.309 896.8C424.745 878.763 386.669 821.213 362.719 772.975C311.757 772.402 267.949 769.474 223.082 743.086C163.075 707.793 149.492 643.193 168.824 580.459C176.353 556.027 186.656 536.195 199.787 514.379C195.751 508.884 192.309 502.385 189.1 496.308C169.297 458.803 156.405 415.294 162.552 372.627C164.629 358.21 170.454 337.363 179.325 325.607C178.213 314.776 178.494 305.58 183.029 295.5C188.649 283.241 198.903 273.713 211.541 269.007C226.298 263.476 240.339 265.624 254.39 271.959C295.305 257.3 318.745 252.845 362.707 253.546C370.924 231.508 388.323 202.022 402.993 183.809C430.51 149.645 460.566 126.989 505.071 121.687Z"/><path fill="#010051" d="M486.369 145.88C499.491 139.918 527.168 141.093 540.327 146.275C591.934 166.598 623.368 215.214 644.395 264.124C645.406 266.476 647.22 270.82 648.353 272.935C649.865 273.865 660.631 272.764 663.564 272.665C711.796 271.045 773.176 281.071 809.984 315.304C830.495 333.118 840.92 356.539 842.623 383.488C845.581 430.279 824.39 476.451 797.884 513.734C827.51 556.97 850.844 600.775 840.811 655.345C839.508 662.393 837.408 669.27 834.55 675.842C830.287 671.555 826.317 667.845 821.043 664.772C825.172 653.9 826.675 636.263 825.573 624.792C825.17 593.002 804.816 554.203 787.291 528.485C762.335 556.931 735.125 583.319 705.926 607.392C698.125 613.818 685.968 623.762 677.145 628.372C672.09 655.329 668.242 681.785 660.184 708.309C658.169 714.945 655.782 723.836 653.285 730.187C653.705 730.409 653.751 730.455 654.19 730.607C677.918 738.806 714.678 732.212 737.188 722.166C740.564 720.917 743.11 719.852 746.67 719.251C749.859 723.988 751.447 729.901 756.152 736.701C751.369 738.878 742.662 741.826 737.58 743.464C708.649 752.786 680.569 757.571 650.54 750.333C644.862 762.53 639.115 775.425 632.37 787.028C612.227 821.682 586.661 856.427 549.286 873.624C483.586 903.854 427.19 847.135 397.227 794.371C388.994 779.873 382.329 765.368 375.476 750.311C319.344 753.446 261.746 745.565 216.738 709.6C154.77 660.084 186.89 566.444 227.585 514.987C214.907 497.494 204.287 478.6 195.932 458.677C181.533 423.826 174.964 383.626 189.852 347.745C195.296 354.684 197.061 356.725 204.119 362.275C202.55 366.556 201.536 368.839 201.748 373.518C202.566 369.923 203.609 366.308 204.591 362.749C216.163 369.067 228.476 371.458 241.459 368.487C254.803 365.419 266.367 357.143 273.576 345.502C281.083 333.413 282.808 319.731 279.654 305.971C278.935 302.683 276.563 297.047 275.238 293.767L270.754 286.436C309.538 275.835 334.543 269.849 375.12 274.684C393.615 224.34 432.262 162.316 486.369 145.88Z"/><path fill="#A4A4C1" d="M486.369 145.88C499.491 139.918 527.168 141.093 540.327 146.275C591.934 166.598 623.368 215.214 644.395 264.124C645.406 266.476 647.22 270.82 648.353 272.935C649.865 273.865 660.631 272.764 663.564 272.665C711.796 271.045 773.176 281.071 809.984 315.304C830.495 333.118 840.92 356.539 842.623 383.488C845.581 430.279 824.39 476.451 797.884 513.734C827.51 556.97 850.844 600.775 840.811 655.345C839.508 662.393 837.408 669.27 834.55 675.842C830.287 671.555 826.317 667.845 821.043 664.772C825.172 653.9 826.675 636.263 825.573 624.792C825.17 593.002 804.816 554.203 787.291 528.485C762.335 556.931 735.125 583.319 705.926 607.392C698.125 613.818 685.968 623.762 677.145 628.372C672.09 655.329 668.242 681.785 660.184 708.309C658.169 714.945 655.782 723.836 653.285 730.187L652.928 730.553C647.607 729.33 640.47 728.078 635.533 726.298C646.032 696.846 649.648 672.021 656.359 642.154C657.615 634.966 659.137 626.096 659.714 618.902C661.977 608.99 663.711 590.363 664.62 580.082C668.36 538.376 668.984 496.448 666.487 454.648C665.673 440.804 664.53 423.289 662.305 409.825C611.439 375.173 568.043 349.904 510.27 326.393C498.564 331.034 483.588 338.4 472.18 344.065C433.896 362.951 397.174 384.849 362.359 409.552C355.85 459.201 355.142 512.899 357.352 562.805C350.313 559.79 347.557 558.879 340.049 557.432C339.114 516.623 338.255 465.488 342.665 425.037C325.765 437.492 312.38 448.792 296.8 462.636C295.8 459.07 290.347 450.143 287.859 447.438C281.444 452.701 269.764 464.602 264.157 470.881C255.769 478.45 243.954 493.132 235.836 501.995C232.131 495.331 227.003 487.816 223.571 481.224C213.426 461.741 201.869 431.988 200.349 410.044C199.479 407.435 198.731 401.337 200.373 399.029C199.944 391.056 200.624 381.394 201.748 373.518C202.566 369.923 203.609 366.308 204.591 362.749C216.163 369.067 228.476 371.458 241.459 368.487C254.803 365.419 266.367 357.143 273.576 345.502C281.083 333.413 282.808 319.731 279.654 305.971C278.935 302.683 276.563 297.047 275.238 293.767L270.754 286.436C309.538 275.835 334.543 269.849 375.12 274.684C393.615 224.34 432.262 162.316 486.369 145.88Z"/><defs><linearGradient id="gradient_0" gradientUnits="userSpaceOnUse" x1="857.92383" y1="488.06387" x2="679.06079" y2="468.98056"><stop offset="0" stop-color="#343A83"/><stop offset="1" stop-color="#5C6DAF"/></linearGradient></defs><path fill="url(#gradient_0)" d="M698.936 283.524C734.851 283.729 770.207 290.953 800.763 310.143C802.692 311.355 808.066 315.031 809.984 315.304C830.495 333.118 840.92 356.539 842.623 383.488C845.581 430.279 824.39 476.451 797.884 513.734C827.51 556.97 850.844 600.775 840.811 655.345C839.508 662.393 837.408 669.27 834.55 675.842C830.287 671.555 826.317 667.845 821.043 664.772C825.172 653.9 826.675 636.263 825.573 624.792C825.17 593.002 804.816 554.203 787.291 528.485C762.335 556.931 735.125 583.319 705.926 607.392C698.125 613.818 685.968 623.762 677.145 628.372L679.797 606.142C683.217 582.952 684.508 554.529 685.013 530.993C685.741 497.045 686.056 457.089 681.859 423.416L687.333 427.538C688.109 426.476 687.956 427.087 687.913 425.705C682.533 418.726 685.39 415.616 689.374 408.607C685.91 405.947 682.281 403.497 678.686 401.014C677.413 396.753 676.087 385.494 675.329 380.388C673.996 371.405 672.351 362.471 670.396 353.603C667.758 341.341 664.68 329.177 661.169 317.136C658.567 308.298 655.234 298.589 652.958 289.732L653.918 288.865C659.395 288.354 665.339 287.904 670.548 286.167C671.962 288.625 673.728 294.065 674.695 296.967C677.761 296.922 683.646 297.022 686.477 296.74C690.665 296.564 694.613 296.808 698.784 297.009C699.505 296.461 699.258 296.648 699.725 295.776C699.4 292.973 699.865 287.528 699.482 285.91L698.936 283.524Z"/><path fill="#A4A4C1" d="M686.477 296.74C690.665 296.564 694.613 296.808 698.784 297.009C734.76 299.494 781.508 310.241 805.99 338.435C817.755 352.115 824.291 369.523 824.435 387.566C824.463 390.334 823.933 403.249 824.246 404.972C823.063 411.176 821.985 417.553 820.219 423.603C814.859 444.513 803.52 461.21 790.987 478.324C788.263 475.283 785.386 472.169 782.843 468.992C783.819 462.153 779.581 447.431 777.685 440.386C766.885 400.27 747.125 362.599 720.402 330.805C710.024 318.458 697.382 308.587 686.477 296.74Z"/><path fill="#010051" d="M681.859 423.416L687.333 427.538C695.371 434.356 704.682 441.263 712.392 448.23C734.416 468.136 758.006 491.466 776.774 514.418C749.247 546.623 720.127 575.576 686.306 601.25C684.15 602.886 682.014 604.593 679.797 606.142C683.217 582.952 684.508 554.529 685.013 530.993C685.741 497.045 686.056 457.089 681.859 423.416Z"/><path fill="#A4A4C1" d="M702.43 456.723C707.331 460.382 719.763 472.609 724.415 477.208C736.188 488.848 748.843 501.103 759.102 514.045C750.371 524.614 740.34 534.636 730.583 544.25C721.092 553.715 711.344 562.259 701.309 571.117C702.835 560.877 703.219 546.717 703.48 536.288C703.987 521.824 704.105 507.35 703.836 492.88C703.558 480.737 702.702 468.72 702.43 456.723Z"/><path fill="#B8D4F1" d="M674.695 296.967C677.761 296.922 683.646 297.022 686.477 296.74C697.382 308.587 710.024 318.458 720.402 330.805C747.125 362.599 766.885 400.27 777.685 440.386C779.581 447.431 783.819 462.153 782.843 468.992C773.065 459.763 764.251 448.642 753.685 438.965C734.75 421.623 715.411 406.051 695.768 389.617C693.915 382.072 693.412 373.543 691.816 366.157C686.768 342.799 682.925 319.424 674.695 296.967Z"/><path fill="#010051" d="M670.548 286.167C671.962 288.625 673.728 294.065 674.695 296.967C682.925 319.424 686.768 342.799 691.816 366.157C693.412 373.543 693.915 382.072 695.768 389.617C715.411 406.051 734.75 421.623 753.685 438.965C764.251 448.642 773.065 459.763 782.843 468.992C785.386 472.169 788.263 475.283 790.987 478.324C803.52 461.21 814.859 444.513 820.219 423.603C821.985 417.553 823.063 411.176 824.246 404.972C825.605 408.198 822.729 420.053 821.878 424.05C816.496 449.473 802.262 479.213 786.62 499.953C776.988 490.134 768.108 479.193 758.386 469.436C736.941 447.913 713.699 426.826 689.374 408.607C685.91 405.947 682.281 403.497 678.686 401.014C677.413 396.753 676.087 385.494 675.329 380.388C673.996 371.405 672.351 362.471 670.396 353.603C667.758 341.341 664.68 329.177 661.169 317.136C658.567 308.298 655.234 298.589 652.958 289.732L653.918 288.865C659.395 288.354 665.339 287.904 670.548 286.167Z"/><path fill="#A4A4C1" d="M486.369 145.88C499.491 139.918 527.168 141.093 540.327 146.275C591.934 166.598 623.368 215.214 644.395 264.124C645.406 266.476 647.22 270.82 648.353 272.935C649.865 273.865 660.631 272.764 663.564 272.665C711.796 271.045 773.176 281.071 809.984 315.304C808.066 315.031 802.692 311.355 800.763 310.143C770.207 290.953 734.851 283.729 698.936 283.524L699.482 285.91C699.865 287.528 699.4 292.973 699.725 295.776C699.258 296.648 699.505 296.461 698.784 297.009C694.613 296.808 690.665 296.564 686.477 296.74C683.646 297.022 677.761 296.922 674.695 296.967C673.728 294.065 671.962 288.625 670.548 286.167C665.339 287.904 659.395 288.354 653.918 288.865L654.717 288.306C654.903 285.831 649.565 276.857 648.113 274.254C644.029 272.236 633.613 270.043 630.909 274.573C629.062 271.302 625.578 262.118 624.034 258.327L614.842 259.239C581.766 264.333 543.602 275.596 512.395 287.929C501.041 284.489 490.803 280.053 479.752 276.54C455.984 268.972 431.594 263.518 406.866 260.241C404.893 260.641 404.607 260.911 403.307 263.004C400.546 267.449 398.35 272.657 396.013 277.37C394.399 277.293 394.243 277.269 392.677 276.868C392.024 275.021 394.112 269.384 394.854 267.327C412.336 218.846 438.243 170.1 486.347 146.496L486.369 145.88Z"/><path fill="#B8D4F1" d="M412.208 249.097C415.279 247.631 418.379 246.225 421.505 244.879C472.233 223.314 528.843 219.89 581.8 235.185C592.87 238.448 599.156 241.716 609.436 245.841C611.575 250.164 613.382 254.642 614.842 259.239C581.766 264.333 543.602 275.596 512.395 287.929C501.041 284.489 490.803 280.053 479.752 276.54C455.984 268.972 431.594 263.518 406.866 260.241L406.161 259.697C406.697 257.794 410.947 251.168 412.208 249.097Z"/><defs><linearGradient id="gradient_1" gradientUnits="userSpaceOnUse" x1="449.17325" y1="172.21416" x2="571.09332" y2="330.19452"><stop offset="0" stop-color="#4C41C4"/><stop offset="1" stop-color="#7078C8"/></linearGradient></defs><path fill="url(#gradient_1)" d="M486.369 145.88C499.491 139.918 527.168 141.093 540.327 146.275C591.934 166.598 623.368 215.214 644.395 264.124C645.406 266.476 647.22 270.82 648.353 272.935C649.865 273.865 660.631 272.764 663.564 272.665C711.796 271.045 773.176 281.071 809.984 315.304C808.066 315.031 802.692 311.355 800.763 310.143C770.207 290.953 734.851 283.729 698.936 283.524L699.482 285.91C699.865 287.528 699.4 292.973 699.725 295.776C699.258 296.648 699.505 296.461 698.784 297.009C694.613 296.808 690.665 296.564 686.477 296.74C683.646 297.022 677.761 296.922 674.695 296.967C673.728 294.065 671.962 288.625 670.548 286.167C665.339 287.904 659.395 288.354 653.918 288.865L654.717 288.306C654.903 285.831 649.565 276.857 648.113 274.254C644.029 272.236 633.613 270.043 630.909 274.573C629.062 271.302 625.578 262.118 624.034 258.327L614.842 259.239C613.382 254.642 611.575 250.164 609.436 245.841C589.088 201.629 541.397 139.796 485.912 165.953C458.621 178.82 437.979 204.657 422.725 230.023C419.344 235.646 414.809 243.172 412.208 249.097C410.947 251.168 406.697 257.794 406.161 259.697L406.866 260.241C404.893 260.641 404.607 260.911 403.307 263.004C400.546 267.449 398.35 272.657 396.013 277.37C394.399 277.293 394.243 277.269 392.677 276.868C392.024 275.021 394.112 269.384 394.854 267.327C412.336 218.846 438.243 170.1 486.347 146.496L486.369 145.88Z"/><path fill="#7782C8" d="M624.034 258.327C623.998 258.149 623.962 257.971 623.926 257.793C616.347 230.639 603.187 205.435 585.937 183.207C580.098 175.685 571.837 169.137 567.36 163.366C589.61 181.848 607.574 211.196 617.924 238.022C622.558 250.033 625.421 259.859 630.624 272.236C635.009 271.484 637.113 270.916 641.499 271.409L642.46 271.51C644.467 271.739 646.482 272.141 648.353 272.935C649.865 273.865 660.631 272.764 663.564 272.665C711.796 271.045 773.176 281.071 809.984 315.304C808.066 315.031 802.692 311.355 800.763 310.143C770.207 290.953 734.851 283.729 698.936 283.524L699.482 285.91C699.865 287.528 699.4 292.973 699.725 295.776C699.258 296.648 699.505 296.461 698.784 297.009C694.613 296.808 690.665 296.564 686.477 296.74C683.646 297.022 677.761 296.922 674.695 296.967C673.728 294.065 671.962 288.625 670.548 286.167C665.339 287.904 659.395 288.354 653.918 288.865L654.717 288.306C654.903 285.831 649.565 276.857 648.113 274.254C644.029 272.236 633.613 270.043 630.909 274.573C629.062 271.302 625.578 262.118 624.034 258.327Z"/><path fill="#5E6EB0" d="M670.548 286.167C679.622 284.054 689.626 283.454 698.936 283.524L699.482 285.91C699.865 287.528 699.4 292.973 699.725 295.776C699.258 296.648 699.505 296.461 698.784 297.009C694.613 296.808 690.665 296.564 686.477 296.74C683.646 297.022 677.761 296.922 674.695 296.967C673.728 294.065 671.962 288.625 670.548 286.167Z"/><path fill="#B8D4F1" d="M345.655 288.009C353.854 288.474 362.115 289.323 370.137 289.764C362.695 313.456 356.108 337.302 351.499 361.727C350.535 366.836 346.273 399.169 344.421 401.088C342.782 402.228 341.027 403.401 339.424 404.569C339.775 406.4 339.711 406.914 341.066 408.203C342.023 408.521 342.795 408.815 343.786 409.019C343.148 414.299 343.344 419.939 342.665 425.037C325.765 437.492 312.38 448.792 296.8 462.636C295.8 459.07 290.347 450.143 287.859 447.438C281.444 452.701 269.764 464.602 264.157 470.881C255.769 478.45 243.954 493.132 235.836 501.995C232.131 495.331 227.003 487.816 223.571 481.224C213.426 461.741 201.869 431.988 200.349 410.044C199.479 407.435 198.731 401.337 200.373 399.029C199.944 391.056 200.624 381.394 201.748 373.518C202.566 369.923 203.609 366.308 204.591 362.749C216.163 369.067 228.476 371.458 241.459 368.487C254.803 365.419 266.367 357.143 273.576 345.502C281.083 333.413 282.808 319.731 279.654 305.971C292.605 302.865 310.717 301.127 322.328 297.697C329.013 293.742 338.234 290.541 345.655 288.009Z"/><path fill="#010051" d="M345.655 288.009C353.854 288.474 362.115 289.323 370.137 289.764C362.695 313.456 356.108 337.302 351.499 361.727C350.535 366.836 346.273 399.169 344.421 401.088C342.782 402.228 341.027 403.401 339.424 404.569C339.775 406.4 339.711 406.914 341.066 408.203C342.023 408.521 342.795 408.815 343.786 409.019C343.148 414.299 343.344 419.939 342.665 425.037C325.765 437.492 312.38 448.792 296.8 462.636C295.8 459.07 290.347 450.143 287.859 447.438C281.444 452.701 269.764 464.602 264.157 470.881C255.769 478.45 243.954 493.132 235.836 501.995C232.131 495.331 227.003 487.816 223.571 481.224C213.426 461.741 201.869 431.988 200.349 410.044L201.48 410.46C205.772 436.049 217.51 456.903 231.771 478.09L234.592 474.392C263.568 441.37 294.469 416.719 328.232 389.077C333.261 359.468 337.952 334.37 345.289 305.172L332.389 302.136C328.911 301.297 325.414 299.469 322.328 297.697C329.013 293.742 338.234 290.541 345.655 288.009Z"/><defs><linearGradient id="gradient_2" gradientUnits="userSpaceOnUse" x1="290.75473" y1="452.40176" x2="345.65768" y2="413.4509"><stop offset="0" stop-color="#7078B9"/><stop offset="1" stop-color="#9FA8E3"/></linearGradient></defs><path fill="url(#gradient_2)" d="M339.424 404.569C339.775 406.4 339.711 406.914 341.066 408.203C342.023 408.521 342.795 408.815 343.786 409.019C343.148 414.299 343.344 419.939 342.665 425.037C325.765 437.492 312.38 448.792 296.8 462.636C295.8 459.07 290.347 450.143 287.859 447.438C300.097 434.716 325.57 414.908 339.424 404.569Z"/><path fill="#A4A4C1" d="M279.654 305.971C292.605 302.865 310.717 301.127 322.328 297.697C325.414 299.469 328.911 301.297 332.389 302.136C325.776 306.844 318.873 313.883 313.052 319.574C278.537 353.319 253.553 396.713 241.039 443.295C239.522 448.941 232.639 470.22 234.592 474.392L231.771 478.09C217.51 456.903 205.772 436.049 201.48 410.46L200.349 410.044C199.479 407.435 198.731 401.337 200.373 399.029C199.944 391.056 200.624 381.394 201.748 373.518C202.566 369.923 203.609 366.308 204.591 362.749C216.163 369.067 228.476 371.458 241.459 368.487C254.803 365.419 266.367 357.143 273.576 345.502C281.083 333.413 282.808 319.731 279.654 305.971Z"/><path fill="#010051" d="M200.349 410.044C199.479 407.435 198.731 401.337 200.373 399.029C200.617 403.219 200.896 406.312 201.48 410.46L200.349 410.044Z"/><path fill="#010051" d="M614.842 259.239L624.034 258.327C625.578 262.118 629.062 271.302 630.909 274.573L630.584 275.812C628.628 276.769 610.337 279.201 606.326 279.933C597.254 281.591 588.24 283.555 579.3 285.821C553.836 292.188 535.443 299.14 511.261 306.933C475.102 292.159 434.678 282.678 396.013 277.37C398.35 272.657 400.546 267.449 403.307 263.004C404.607 260.911 404.893 260.641 406.866 260.241C431.594 263.518 455.984 268.972 479.752 276.54C490.803 280.053 501.041 284.489 512.395 287.929C543.602 275.596 581.766 264.333 614.842 259.239Z"/><path fill="#4742B0" d="M275.238 293.767C277.933 292.799 285.257 291.337 288.345 290.784C305.621 287.686 328.647 284.01 345.655 288.009C338.234 290.541 329.013 293.742 322.328 297.697C310.717 301.127 292.605 302.865 279.654 305.971C278.935 302.683 276.563 297.047 275.238 293.767Z"/><path fill="#5E6EB0" d="M678.686 401.014C682.281 403.497 685.91 405.947 689.374 408.607C685.39 415.616 682.533 418.726 687.913 425.705C687.956 427.087 688.109 426.476 687.333 427.538L681.859 423.416C680.837 420.791 679.069 404.335 678.686 401.014Z"/><path fill="#9794E9" d="M344.421 401.088C344.566 404.517 344.334 405.655 343.786 409.019C342.795 408.815 342.023 408.521 341.066 408.203C339.711 406.914 339.775 406.4 339.424 404.569C341.027 403.401 342.782 402.228 344.421 401.088Z"/><path fill="#010051" d="M633.608 290.642C634.942 290.447 634.449 290.431 635.748 290.793C637.34 292.72 638.797 298.422 639.668 301.058C648.815 328.73 652.759 357.223 658.345 385.718C637.277 371.144 619.405 360.869 597.225 348.36C587.098 342.871 576.991 337.331 566.703 332.147C556.474 326.994 545.267 322.362 535.264 316.874C568.798 304.284 598.907 297.451 633.608 290.642Z"/><path fill="#B8D4F1" d="M627.665 310.637C630.747 312.331 637.517 345.53 638.868 351.704C629.696 346.965 619.867 340.88 610.919 335.579C601.843 330.515 592.68 325.608 583.435 320.858C597.056 316.709 613.605 313.608 627.665 310.637Z"/><path fill="#010051" d="M388.066 291.733C421.301 295.523 456.328 305.568 487.853 316.624C467.371 326.518 447.14 336.924 427.18 347.833C406.271 359.619 385.808 372.18 365.834 385.49C370.914 350.783 377.997 325.034 388.066 291.733Z"/><path fill="#B8D4F1" d="M393.362 310.845C407.427 312.629 424.824 316.627 438.347 320.95C429.739 325.931 419.983 331.048 411.204 335.865C401.703 341.154 392.309 346.634 383.03 352.303C386.076 338.387 389.522 324.562 393.362 310.845Z"/><defs><linearGradient id="gradient_3" gradientUnits="userSpaceOnUse" x1="396.61502" y1="310.32037" x2="505.34314" y2="883.70154"><stop offset="0" stop-color="#3B3E85"/><stop offset="1" stop-color="#4B5CA0"/></linearGradient></defs><path fill="url(#gradient_3)" d="M227.585 514.987C214.907 497.494 204.287 478.6 195.932 458.677C181.533 423.826 174.964 383.626 189.852 347.745C195.296 354.684 197.061 356.725 204.119 362.275C202.55 366.556 201.536 368.839 201.748 373.518C200.624 381.394 199.944 391.056 200.373 399.029C198.731 401.337 199.479 407.435 200.349 410.044C201.869 431.988 213.426 461.741 223.571 481.224C227.003 487.816 232.131 495.331 235.836 501.995C243.954 493.132 255.769 478.45 264.157 470.881C269.764 464.602 281.444 452.701 287.859 447.438C290.347 450.143 295.8 459.07 296.8 462.636C294.696 464.599 291.395 467.864 289.252 469.571C285.125 474.096 280.076 478.565 275.738 483.035C265.771 493.347 256.071 503.913 246.647 514.725C261.827 532.657 283.713 557.946 301.68 572.756C298.115 577.367 295.877 581.014 293.018 586.108C276.006 568.783 259.557 551.527 244.187 532.697C242.427 530.541 240.267 527.976 238.325 525.992C212.036 568.333 178.355 633.093 210.884 680.45C223.343 698.588 242.977 709.886 262.785 718.502C277.321 724.012 291.78 727.538 307.098 730.256C328.315 734.283 352.574 736.993 373.804 732.764C363.136 706.266 356.309 679.238 350.159 651.415C356.919 649.197 360.528 647.763 366.773 644.4C370.815 664.643 374.658 682.211 380.881 702.016C383.064 708.939 385.412 715.81 387.925 722.62C388.69 724.728 391.097 730.838 391.603 732.739C393.349 737.062 395.819 743.546 398.099 747.47C401.184 754.271 404.304 761.4 407.616 768.062C409.605 771.126 413.331 777.898 415.135 780.064C486.3 806.11 536.641 802.86 608.973 784.713C612.51 779.085 614.79 773.265 618.572 767.777C621.282 764.769 625.603 752.945 627.409 748.446C629.853 743.026 632.054 736.611 633.93 730.981L635.533 726.298C640.47 728.078 647.607 729.33 652.928 730.553L653.285 730.187C653.705 730.409 653.751 730.455 654.19 730.607C677.918 738.806 714.678 732.212 737.188 722.166C740.564 720.917 743.11 719.852 746.67 719.251C749.859 723.988 751.447 729.901 756.152 736.701C751.369 738.878 742.662 741.826 737.58 743.464C708.649 752.786 680.569 757.571 650.54 750.333C644.862 762.53 639.115 775.425 632.37 787.028C612.227 821.682 586.661 856.427 549.286 873.624C483.586 903.854 427.19 847.135 397.227 794.371C388.994 779.873 382.329 765.368 375.476 750.311C319.344 753.446 261.746 745.565 216.738 709.6C154.77 660.084 186.89 566.444 227.585 514.987Z"/><path fill="#A4A4C1" d="M415.135 780.064C486.3 806.11 536.641 802.86 608.973 784.713C594.96 813.172 564.97 845.55 534.82 855.737C487.85 871.606 446.474 834.046 424.044 796.408C421.094 791.459 416.955 785.475 415.135 780.064Z"/><path fill="#9794E9" d="M350.159 651.415C356.919 649.197 360.528 647.763 366.773 644.4C370.815 664.643 374.658 682.211 380.881 702.016C383.064 708.939 385.412 715.81 387.925 722.62C388.69 724.728 391.097 730.838 391.603 732.739C393.349 737.062 395.819 743.546 398.099 747.47C401.184 754.271 404.304 761.4 407.616 768.062C409.605 771.126 413.331 777.898 415.135 780.064C416.955 785.475 421.094 791.459 424.044 796.408C446.474 834.046 487.85 871.606 534.82 855.737C564.97 845.55 594.96 813.172 608.973 784.713C612.51 779.085 614.79 773.265 618.572 767.777C621.282 764.769 625.603 752.945 627.409 748.446C629.853 743.026 632.054 736.611 633.93 730.981L635.533 726.298C640.47 728.078 647.607 729.33 652.928 730.553C634.326 777.611 594.662 844.612 546.242 865.451C525.314 874.47 501.655 874.779 480.498 866.312C438.351 849.272 409.144 801.878 388.772 763.383C383.584 753.579 378.837 741.85 373.804 732.764C363.136 706.266 356.309 679.238 350.159 651.415Z"/><path fill="#7782C8" d="M287.859 447.438C290.347 450.143 295.8 459.07 296.8 462.636C294.696 464.599 291.395 467.864 289.252 469.571C289.711 468.472 290.456 467.419 289.961 466.727C286.701 462.165 284.16 460.219 281.063 455.228C278.181 458.15 266.989 470.337 264.157 470.881C269.764 464.602 281.444 452.701 287.859 447.438Z"/><path fill="#4742B0" d="M511.104 700.915C519.68 696.824 528.833 693.417 537.542 689.352C559.605 678.925 581.272 667.677 602.495 655.631C621.013 645.038 641.531 630.707 659.714 618.902C659.137 626.096 657.615 634.966 656.359 642.154C649.648 672.021 646.032 696.846 635.533 726.298L633.93 730.981C632.054 736.611 629.853 743.026 627.409 748.446C625.603 752.945 621.282 764.769 618.572 767.777C614.79 773.265 612.51 779.085 608.973 784.713C536.641 802.86 486.3 806.11 415.135 780.064C413.331 777.898 409.605 771.126 407.616 768.062C404.304 761.4 401.184 754.271 398.099 747.47C395.819 743.546 393.349 737.062 391.603 732.739C414.014 730.72 466.89 718.155 487.459 709.142C477.392 702.626 460.941 696.226 449.48 690.156C422.937 676.1 395.496 659.418 371.696 641.034C376.595 635.95 378.286 633.643 382.108 627.637C397.877 639.461 411.843 649.485 428.755 659.684C455.71 675.939 482.584 688.131 511.104 700.915Z"/><path fill="#B8D4F1" d="M510.594 740.125C541.779 751.285 586.353 762.967 618.572 767.777C614.79 773.265 612.51 779.085 608.973 784.713C536.641 802.86 486.3 806.11 415.135 780.064C413.331 777.898 409.605 771.126 407.616 768.062C443.892 762.329 476.732 754.121 510.594 740.125Z"/><path fill="#010051" d="M398.099 747.47C405.093 745.463 412.808 744.825 419.996 743.675C450.688 738.765 479.413 728.877 508.392 717.98C533.683 726.693 557.516 734.677 583.838 740.101C594.009 742.197 604.072 744.028 614.281 745.876C616.449 746.268 625.606 747.785 627.409 748.446C625.603 752.945 621.282 764.769 618.572 767.777C586.353 762.967 541.779 751.285 510.594 740.125C476.732 754.121 443.892 762.329 407.616 768.062C404.304 761.4 401.184 754.271 398.099 747.47Z"/><path fill="#010051" d="M536.459 708.073C563.126 695.908 589.19 682.464 614.561 667.788C627.618 660.183 643.531 648.847 656.359 642.154C649.648 672.021 646.032 696.846 635.533 726.298L633.93 730.981C599.205 725.299 569.561 720.293 536.459 708.073Z"/><path fill="#B8D4F1" d="M633.757 679.946L634.16 680.26C634.939 683.397 626.507 711.092 625.006 716.264C614.593 715.084 601.318 712.035 590.868 709.887C587.788 709.249 584.703 708.633 581.614 708.039C599.473 699.595 616.587 689.69 633.757 679.946Z"/><path fill="#B8D4F1" d="M510.616 341.97C522.055 345.547 538.685 353.625 549.477 359.035C578.543 373.608 610.008 390.439 636.704 409.061C641.207 411.951 645.827 415.067 650.342 417.883C652.164 426.77 652.83 442.205 653.367 451.7C655.574 489.464 655.351 527.331 652.698 565.067C651.8 578.508 650.775 595.664 648.229 608.731C638.888 615.207 629.583 621.72 620.097 627.983C585.897 650.565 549.465 668.949 512.064 685.584C473.734 670.046 418.634 642.497 387.827 614.824C390.651 594.651 385.698 583.129 371.107 569.417C369.177 544.204 368.65 518.903 369.526 493.631C369.17 470.115 371.628 441.823 374.245 418.691C378.972 414.575 389.308 407.987 394.892 404.27C419.528 387.899 445.169 373.092 471.662 359.937C484.177 353.6 497.447 346.848 510.616 341.97Z"/><path fill="#A4A4C1" d="M636.704 409.061C641.207 411.951 645.827 415.067 650.342 417.883C652.164 426.77 652.83 442.205 653.367 451.7C655.574 489.464 655.351 527.331 652.698 565.067C651.8 578.508 650.775 595.664 648.229 608.731C638.888 615.207 629.583 621.72 620.097 627.983C585.897 650.565 549.465 668.949 512.064 685.584C473.734 670.046 418.634 642.497 387.827 614.824C390.651 594.651 385.698 583.129 371.107 569.417C369.177 544.204 368.65 518.903 369.526 493.631C372.045 499.867 374.811 514.711 377.653 523.273C388.136 554.279 408.908 580.766 436.52 598.338C466.908 617.954 503.845 624.694 539.203 617.073C574.944 609.003 605.996 587.025 625.489 556C652.224 513.86 653.942 465.131 639.283 418.662C638.363 415.744 637.47 412.641 636.826 409.649L636.704 409.061Z"/><path fill="#010051" d="M505.742 445.228C543.163 442.19 575.963 470.061 579.005 507.482C582.046 544.903 554.179 577.705 516.758 580.75C479.332 583.796 446.525 555.923 443.483 518.498C440.441 481.072 468.316 448.267 505.742 445.228Z"/><path fill="#212277" d="M557.884 502.643C558.512 507.52 558.98 512.445 558.495 517.355C555.944 543.19 531.612 563.109 505.773 560.182C493.09 558.84 481.498 552.399 473.66 542.338C465.825 532.153 462.404 519.251 464.162 506.522C465.711 494.19 472.085 482.974 481.886 475.331C494.957 465.267 506.307 465.547 521.56 467.592C527.304 468.291 531.546 470.256 536.193 473.541C547.308 476.491 554.666 492.753 557.884 502.643Z"/><path fill="#9794E9" d="M521.56 467.592C527.304 468.291 531.546 470.256 536.193 473.541C541.265 480.71 543.76 484.528 542.562 494.822C540.138 515.637 508.826 537.829 492.2 518.222C489.93 515.545 488.385 507.816 487.517 503.822C487.543 497.898 492.409 486.401 496.252 481.574C503.269 472.759 510.711 469.173 521.56 467.592Z"/><path fill="white" d="M518.794 476.124C525.827 476.262 531.6 479.071 533.554 486.258C534.756 490.778 534.005 495.594 531.485 499.533C528.31 504.515 524.589 505.893 519.268 507.181C515.094 506.774 512.5 506.591 508.858 504.095C505.518 501.821 503.275 498.259 502.668 494.264C502.082 490.364 503.082 486.39 505.445 483.232C508.939 478.51 513.348 477.057 518.794 476.124Z"/><path fill="#4742B0" d="M536.193 473.541C547.308 476.491 554.666 492.753 557.884 502.643C551.325 517.405 540.432 530.04 525.338 535.698C509.094 541.787 492.208 536.795 487.225 519.029C485.948 514.476 484.372 507.92 487.517 503.822C488.385 507.816 489.93 515.545 492.2 518.222C508.826 537.829 540.138 515.637 542.562 494.822C543.76 484.528 541.265 480.71 536.193 473.541Z"/><path fill="#A4A4C1" d="M263.535 716.901C250.646 712.125 235.163 703.368 225.031 694.489C209.404 680.908 199.92 661.596 198.728 640.928C196.643 609.25 211.99 576.285 229.568 550.657C230.172 549.776 230.738 549.875 231.586 549.855L233.126 551.459C239.401 558.168 245.244 565.521 251.47 572.325C263.57 585.548 274.972 596.734 288.982 607.771C291.67 636.052 304.78 650.272 332.652 656.836C336.332 679.889 343.198 703.913 350.231 726.128L338.817 728.556C325.92 730.328 320.506 729.928 307.738 728.975C291.732 726.433 278.538 723.049 263.535 716.901Z"/><path fill="#B8D4F1" d="M233.126 551.459C239.401 558.168 245.244 565.521 251.47 572.325C263.57 585.548 274.972 596.734 288.982 607.771C291.67 636.052 304.78 650.272 332.652 656.836C336.332 679.889 343.198 703.913 350.231 726.128L338.817 728.556C335.562 725.873 332.515 722.937 329.591 719.902C290.272 679.095 256.984 631.081 238.626 577.132C236.951 572.208 230.983 556.22 233.126 551.459Z"/><path fill="#B8D4F1" d="M322.33 458.008C323.123 459.167 322.32 466.238 322.215 468.2C320.639 497.554 321.207 527.058 321.511 556.429C317.64 558.277 314.091 560.474 310.412 562.667C302.404 555.479 294.888 547.668 287.335 539.999C279.148 531.208 271.196 522.203 263.487 512.991C283.646 491.752 299.377 476.673 322.33 458.008Z"/><path fill="#7782C8" d="M313.746 589.242C320.945 573.08 331.44 569.483 347.814 573.849C383.366 576.841 376.02 641.374 334.612 635.725C326.835 634.691 319.818 630.523 315.189 624.188C307.96 614.371 306.268 599.38 313.746 589.242Z"/><path fill="#4742B0" d="M347.814 573.849C383.366 576.841 376.02 641.374 334.612 635.725C326.835 634.691 319.818 630.523 315.189 624.188C307.96 614.371 306.268 599.38 313.746 589.242C314.441 598.856 314.245 607.85 322.048 614.668C338.449 628.998 361.108 612.313 359.466 592.708C358.719 583.789 353.963 579.116 347.814 573.849Z"/><path fill="white" d="M334.519 578.236C342.993 577.342 350.587 583.488 351.478 591.963C352.369 600.437 346.22 608.029 337.745 608.916C329.275 609.803 321.689 603.658 320.798 595.188C319.908 586.719 326.05 579.13 334.519 578.236Z"/><path fill="#B8D4F1" d="M387.223 678.501C391.862 680.276 406.024 689.715 411.346 692.839C421.388 698.732 431.023 703.11 441.053 708.515L434.081 710.25C421.581 713.458 410.256 714.487 398.307 717.317C394.846 707.671 388.724 688.486 387.223 678.501Z"/><path fill="#A4A4C1" d="M792.229 551.256C811.497 577.49 823.963 600.972 824.534 634.703C824.021 643.303 823.032 656.324 819.991 664.333C806.824 657.528 794.061 655.192 779.684 659.842C767.143 663.867 756.726 672.729 750.743 684.463C746.085 693.588 744.98 701.439 746.095 711.545C746.303 713.426 747.083 716.661 746.353 718.302C743.398 718.455 740.12 719.751 737.239 720.689C716.831 726.187 696.689 730.684 675.345 727.886C675.555 723.327 682.935 698.916 684.477 692.222C688.395 675.207 691.07 659.039 694.251 641.946C705.59 634.103 713.634 626.718 723.944 618.045C744.634 600.642 762.173 582.908 780.853 563.537C784.617 559.417 788.409 555.323 792.229 551.256Z"/><path fill="#B8D4F1" d="M780.853 563.537C781.728 570.126 778.636 578.653 776.83 584.957C762.022 636.655 730.088 682.193 688.817 716.312C684.269 720.072 680.297 724.52 675.345 727.886C675.555 723.327 682.935 698.916 684.477 692.222C688.395 675.207 691.07 659.039 694.251 641.946C705.59 634.103 713.634 626.718 723.944 618.045C744.634 600.642 762.173 582.908 780.853 563.537Z"/><path fill="#4742B0" d="M229.295 285.191C247.279 284.245 262.627 298.053 263.579 316.036C264.532 334.019 250.73 349.372 232.747 350.331C214.754 351.291 199.392 337.48 198.439 319.487C197.486 301.495 211.302 286.138 229.295 285.191Z"/><path fill="#7782C8" d="M231.549 289.767C243.701 287.718 255.203 295.938 257.199 308.099C259.195 320.259 250.925 331.725 238.756 333.669C226.662 335.6 215.281 327.392 213.297 315.306C211.313 303.22 219.472 291.804 231.549 289.767Z"/><path fill="white" d="M234.151 295.195C241.404 293.714 248.494 298.36 250.033 305.601C251.572 312.843 246.984 319.971 239.755 321.568C232.443 323.184 225.216 318.531 223.659 311.206C222.102 303.882 226.813 296.692 234.151 295.195Z"/><path fill="#7782C8" d="M787.847 677.685C800.894 674.624 814.433 680.276 821.43 691.705C828.428 703.134 827.306 717.763 818.647 727.991C809.989 738.22 795.746 741.741 783.318 736.726C770.891 731.711 763.081 719.291 763.947 705.918C764.83 692.272 774.534 680.809 787.847 677.685Z"/><path fill="#212277" d="M787.847 677.685C800.894 674.624 814.433 680.276 821.43 691.705C828.428 703.134 827.306 717.763 818.647 727.991C809.989 738.22 795.746 741.741 783.318 736.726C770.891 731.711 763.081 719.291 763.947 705.918C764.821 709.038 765.585 711.874 766.854 714.857C771.862 726.63 783.746 731.934 795.636 726.079C801.776 723.015 806.446 717.635 808.614 711.125C810.75 704.565 810.155 697.421 806.962 691.305C802.625 683.193 796.118 680.072 787.847 677.685Z"/><path fill="white" d="M782.908 689.746C789.974 688.837 796.441 693.822 797.362 700.887C798.283 707.951 793.309 714.427 786.247 715.36C779.166 716.296 772.67 711.307 771.747 704.225C770.824 697.143 775.824 690.656 782.908 689.746Z"/></svg>